<svg xmlns="http://www.w3.org/2000/svg" xmlns:xlink="http://www.w3.org/1999/xlink" version="1.1" width="256" height="256" viewBox="0 0 256 256" xml:space="preserve">
<g style="stroke: none; stroke-width: 0; stroke-dasharray: none; stroke-linecap: butt; stroke-linejoin: miter; stroke-miterlimit: 10; fill: rgb(11,37,69); fill-rule: nonzero; opacity: 1;" transform="translate(0 -2.842170943040401e-14) scale(2.81 2.81)">
	<circle cx="45" cy="45" r="45" style="stroke: none; stroke-width: 1; stroke-dasharray: none; stroke-linecap: butt; stroke-linejoin: miter; stroke-miterlimit: 10; fill: rgb(11,37,69); fill-rule: nonzero; opacity: 1;" transform="  matrix(1 0 0 1 0 0) "/>
</g>
<g style="stroke: none; stroke-width: 0; stroke-dasharray: none; stroke-linecap: butt; stroke-linejoin: miter; stroke-miterlimit: 10; fill: none; fill-rule: nonzero; opacity: 1;" transform="translate(46.17984832069338 46.17984832069335) scale(1.82 1.82)">
	<path d="M 46.051 89.797 c 24.029 -9.725 36.144 -20.05 36.345 -72.367 c 0.003 -0.78 -0.532 -1.464 -1.288 -1.657 C 68.239 12.49 56.71 7.388 46.52 0.469 c -0.921 -0.626 -2.119 -0.626 -3.04 0 C 33.29 7.388 21.761 12.49 8.891 15.773 C 8.135 15.965 7.6 16.65 7.603 17.43 C 7.805 69.747 19.92 80.071 43.949 89.797 C 44.618 90.068 45.382 90.068 46.051 89.797 z" style="stroke: none; stroke-width: 1; stroke-dasharray: none; stroke-linecap: butt; stroke-linejoin: miter; stroke-miterlimit: 10; fill: rgb(255,255,255); fill-rule: nonzero; opacity: 1;" transform=" matrix(1 0 0 1 0 0) " stroke-linecap="round"/>
	<path d="M 39.623 61.76 L 39.623 61.76 L 39.236 46.38 l 0 0 l 21.156 -9.46 l 6.837 6.837 c 0.56 0.56 0.444 1.498 -0.236 1.905 L 39.623 61.76 z" style="stroke: none; stroke-width: 1; stroke-dasharray: none; stroke-linecap: butt; stroke-linejoin: miter; stroke-miterlimit: 10; fill: rgb(255,255,255); fill-rule: nonzero; opacity: 1;" transform=" matrix(1 0 0 1 0 0) " stroke-linecap="round"/>
	<path d="M 38.526 61.544 L 24.194 47.211 c -0.475 -0.475 -0.475 -1.246 0 -1.721 l 6.219 -6.219 c 0.475 -0.475 1.246 -0.475 1.721 0 l 6.552 6.558 c 0.304 0.304 0.797 0.304 1.1 0 l 17.546 -17.573 c 0.475 -0.476 1.246 -0.476 1.721 -0.001 l 6.219 6.213 c 0.475 0.475 0.476 1.245 0.001 1.721 L 39.946 61.544 C 39.554 61.936 38.918 61.936 38.526 61.544 z" style="stroke: none; stroke-width: 1; stroke-dasharray: none; stroke-linecap: butt; stroke-linejoin: miter; stroke-miterlimit: 10; fill: rgb(255,255,255); fill-rule: nonzero; opacity: 1;" transform=" matrix(1 0 0 1 0 0) " stroke-linecap="round"/>
</g>
</svg>