<svg xmlns="http://www.w3.org/2000/svg" xmlns:xlink="http://www.w3.org/1999/xlink" version="1.1" width="256" height="256" viewBox="0 0 256 256" xml:space="preserve">
<g style="stroke: none; stroke-width: 0; stroke-dasharray: none; stroke-linecap: butt; stroke-linejoin: miter; stroke-miterlimit: 10; fill: rgb(11,37,69); fill-rule: nonzero; opacity: 1;" transform="translate(0 -2.842170943040401e-14) scale(2.81 2.81)">
	<circle cx="45" cy="45" r="45" style="stroke: none; stroke-width: 1; stroke-dasharray: none; stroke-linecap: butt; stroke-linejoin: miter; stroke-miterlimit: 10; fill: rgb(11,37,69); fill-rule: nonzero; opacity: 1;" transform="  matrix(1 0 0 1 0 0) "/>
</g>
<g style="stroke: none; stroke-width: 0; stroke-dasharray: none; stroke-linecap: butt; stroke-linejoin: miter; stroke-miterlimit: 10; fill: none; fill-rule: nonzero; opacity: 1;" transform="translate(46.17984832069338 46.17984832069335) scale(1.82 1.82)">
	<path d="M 45 0 c 22.575 0 34.629 4.69 34.808 6.692 c -0.004 0.048 -0.021 0.099 -0.039 0.15 c -0.005 0.016 -0.005 0.03 -0.012 0.046 C 79.709 7 79.622 7.121 79.51 7.246 c -0.022 0.025 -0.039 0.049 -0.064 0.075 c -0.133 0.136 -0.309 0.28 -0.516 0.427 c -0.025 0.018 -0.044 0.035 -0.07 0.052 c -0.095 0.066 -0.203 0.133 -0.312 0.2 c -0.029 0.018 -0.053 0.036 -0.084 0.054 c -0.124 0.074 -0.26 0.15 -0.4 0.226 c -0.022 0.012 -0.041 0.024 -0.063 0.036 c -0.33 0.176 -0.705 0.356 -1.124 0.538 c -0.002 0.001 -0.004 0.002 -0.006 0.003 c -0.101 0.044 -0.213 0.088 -0.32 0.133 c -0.337 0.14 -0.692 0.281 -1.081 0.423 c -0.099 0.036 -0.207 0.072 -0.31 0.108 C 75 9.576 74.841 9.633 74.671 9.69 c -0.269 0.09 -0.549 0.18 -0.838 0.27 c -0.01 0.003 -0.018 0.006 -0.028 0.009 c -0.159 0.049 -0.329 0.098 -0.494 0.147 c -0.147 0.044 -0.289 0.088 -0.441 0.131 c -0.057 0.016 -0.119 0.032 -0.176 0.048 c -0.268 0.075 -0.539 0.151 -0.822 0.225 c -0.141 0.037 -0.292 0.074 -0.438 0.111 c -0.209 0.053 -0.413 0.107 -0.629 0.159 c -0.575 0.14 -1.185 0.276 -1.813 0.41 c -0.172 0.037 -0.338 0.074 -0.514 0.11 c -0.043 0.009 -0.089 0.017 -0.132 0.026 c -0.781 0.159 -1.597 0.313 -2.455 0.46 c -0.125 0.021 -0.256 0.041 -0.383 0.062 c -0.747 0.125 -1.519 0.244 -2.323 0.358 c -0.301 0.042 -0.612 0.083 -0.921 0.123 c -0.392 0.052 -0.789 0.102 -1.193 0.15 c -0.712 0.085 -1.444 0.165 -2.196 0.241 c -0.195 0.019 -0.385 0.041 -0.582 0.059 c -0.048 0.005 -0.098 0.008 -0.146 0.013 c -1.316 0.123 -2.696 0.228 -4.128 0.315 c -1.369 0.083 -2.791 0.149 -4.265 0.194 c -1.531 0.047 -3.111 0.074 -4.753 0.074 c -3.529 0 -6.8 -0.114 -9.809 -0.315 c -2.407 -0.161 -4.647 -0.377 -6.716 -0.634 c -0.517 -0.064 -1.024 -0.131 -1.52 -0.2 c -10.909 -1.52 -16.642 -4.167 -16.763 -5.543 C 10.369 4.691 22.424 0 45 0 z" style="stroke: none; stroke-width: 1; stroke-dasharray: none; stroke-linecap: butt; stroke-linejoin: miter; stroke-miterlimit: 10; fill: rgb(255,255,255); fill-rule: nonzero; opacity: 1;" transform=" matrix(1 0 0 1 0 0) " stroke-linecap="round"/>
	<path d="M 79.629 12.303 c -0.384 0.202 -0.789 0.397 -1.211 0.586 c -0.114 0.051 -0.226 0.103 -0.343 0.153 c -0.498 0.213 -1.015 0.419 -1.557 0.615 c -0.09 0.032 -0.184 0.063 -0.275 0.095 c -0.48 0.169 -0.977 0.331 -1.487 0.488 c -0.14 0.043 -0.277 0.086 -0.419 0.128 c -0.592 0.175 -1.197 0.343 -1.822 0.503 c -0.097 0.025 -0.198 0.048 -0.296 0.072 c -0.553 0.138 -1.117 0.269 -1.691 0.395 c -0.162 0.036 -0.322 0.071 -0.486 0.106 c -0.658 0.14 -1.324 0.273 -2.003 0.398 c -0.096 0.018 -0.194 0.034 -0.29 0.051 c -0.609 0.11 -1.224 0.214 -1.845 0.313 c -0.172 0.027 -0.344 0.055 -0.517 0.082 c -0.7 0.108 -1.404 0.21 -2.113 0.305 c -0.087 0.012 -0.175 0.022 -0.263 0.033 c -0.641 0.084 -1.285 0.162 -1.929 0.235 c -0.181 0.021 -0.362 0.041 -0.543 0.061 c -0.713 0.078 -1.426 0.152 -2.137 0.219 c -0.069 0.006 -0.137 0.012 -0.207 0.018 c -0.658 0.06 -1.312 0.115 -1.962 0.166 c -0.181 0.014 -0.36 0.028 -0.54 0.041 c -0.699 0.052 -1.395 0.1 -2.08 0.141 c -0.053 0.003 -0.105 0.006 -0.159 0.009 c -0.647 0.038 -1.284 0.071 -1.914 0.1 c -0.168 0.008 -0.334 0.016 -0.5 0.023 c -0.663 0.029 -1.318 0.054 -1.955 0.073 c -0.031 0.001 -0.061 0.001 -0.092 0.002 c -0.615 0.018 -1.211 0.031 -1.795 0.041 c -0.152 0.003 -0.302 0.005 -0.453 0.007 C 46.147 17.77 45.56 17.776 45 17.776 s -1.147 -0.006 -1.746 -0.014 c -0.15 -0.002 -0.3 -0.004 -0.453 -0.007 c -0.585 -0.01 -1.181 -0.023 -1.795 -0.041 c -0.031 -0.001 -0.061 -0.001 -0.092 -0.002 c -0.637 -0.019 -1.292 -0.045 -1.955 -0.074 c -0.166 -0.007 -0.332 -0.015 -0.5 -0.023 c -0.63 -0.029 -1.268 -0.062 -1.916 -0.1 c -0.053 -0.003 -0.104 -0.005 -0.157 -0.009 c -0.686 -0.041 -1.381 -0.089 -2.081 -0.141 c -0.179 -0.013 -0.358 -0.027 -0.537 -0.041 c -0.652 -0.051 -1.308 -0.106 -1.967 -0.166 c -0.068 -0.006 -0.135 -0.011 -0.202 -0.018 c -0.712 -0.066 -1.425 -0.14 -2.14 -0.219 c -0.18 -0.02 -0.36 -0.04 -0.54 -0.061 c -0.647 -0.074 -1.293 -0.152 -1.936 -0.236 c -0.085 -0.011 -0.171 -0.021 -0.256 -0.032 c -0.71 -0.095 -1.415 -0.197 -2.116 -0.305 c -0.171 -0.026 -0.341 -0.054 -0.512 -0.081 c -0.624 -0.099 -1.243 -0.204 -1.855 -0.314 c -0.093 -0.017 -0.188 -0.032 -0.281 -0.05 c -0.68 -0.125 -1.348 -0.259 -2.007 -0.399 c -0.162 -0.034 -0.321 -0.07 -0.481 -0.105 c -0.577 -0.127 -1.143 -0.259 -1.699 -0.397 c -0.096 -0.024 -0.194 -0.046 -0.289 -0.07 c -0.626 -0.159 -1.232 -0.328 -1.825 -0.503 c -0.14 -0.041 -0.276 -0.084 -0.414 -0.127 c -0.513 -0.157 -1.011 -0.32 -1.494 -0.49 c -0.089 -0.031 -0.181 -0.061 -0.269 -0.093 c -0.543 -0.196 -1.061 -0.402 -1.559 -0.616 c -0.116 -0.05 -0.228 -0.101 -0.342 -0.152 c -0.423 -0.189 -0.828 -0.384 -1.212 -0.586 c -0.057 -0.03 -0.123 -0.056 -0.178 -0.086 v 20.014 c 0.173 2.001 12.225 6.693 34.808 6.693 c 3.093 0 5.98 -0.091 8.674 -0.248 c 1.61 -0.094 3.155 -0.21 4.62 -0.349 c 1.56 -0.148 3.033 -0.321 4.428 -0.511 c 0.106 -0.014 0.218 -0.028 0.323 -0.042 c 1.423 -0.198 2.755 -0.416 4.001 -0.648 c 0.056 -0.01 0.116 -0.02 0.172 -0.031 c 0.785 -0.148 1.529 -0.301 2.242 -0.458 c 0.071 -0.016 0.146 -0.031 0.216 -0.046 c 1.879 -0.42 3.498 -0.869 4.861 -1.32 c 0.044 -0.015 0.092 -0.029 0.135 -0.044 c 0.447 -0.15 0.857 -0.3 1.246 -0.449 c 0.095 -0.037 0.197 -0.073 0.288 -0.11 c 0.86 -0.341 1.561 -0.677 2.115 -0.997 c 0.047 -0.027 0.1 -0.055 0.145 -0.082 c 0.039 -0.023 0.07 -0.046 0.107 -0.069 c 0.1 -0.062 0.2 -0.124 0.288 -0.185 c 0.038 -0.026 0.068 -0.052 0.104 -0.078 c 0.077 -0.056 0.156 -0.112 0.223 -0.167 c 0.039 -0.032 0.067 -0.062 0.102 -0.093 c 0.054 -0.048 0.111 -0.096 0.156 -0.142 c 0.015 -0.015 0.023 -0.029 0.037 -0.044 c 0.056 -0.061 0.111 -0.121 0.152 -0.179 c 0.024 -0.034 0.037 -0.066 0.057 -0.099 c 0.022 -0.037 0.049 -0.075 0.064 -0.111 c 0.009 -0.021 0.009 -0.039 0.016 -0.059 c 0.015 -0.046 0.032 -0.093 0.035 -0.136 V 12.217 C 79.752 12.247 79.686 12.273 79.629 12.303 z M 45.982 30.545 h -1.965 c -1.212 0 -2.195 -0.983 -2.195 -2.195 s 0.983 -2.195 2.195 -2.195 h 1.965 c 1.213 0 2.196 0.983 2.196 2.195 S 47.195 30.545 45.982 30.545 z" style="stroke: none; stroke-width: 1; stroke-dasharray: none; stroke-linecap: butt; stroke-linejoin: miter; stroke-miterlimit: 10; fill: rgb(255,255,255); fill-rule: nonzero; opacity: 1;" transform=" matrix(1 0 0 1 0 0) " stroke-linecap="round"/>
	<path d="M 79.629 37.841 c -0.384 0.202 -0.789 0.397 -1.211 0.586 c -0.114 0.051 -0.226 0.103 -0.343 0.153 c -0.498 0.213 -1.015 0.419 -1.557 0.615 c -0.09 0.032 -0.184 0.063 -0.275 0.095 c -0.48 0.169 -0.977 0.331 -1.487 0.488 c -0.14 0.043 -0.277 0.086 -0.419 0.128 c -0.592 0.175 -1.197 0.343 -1.822 0.503 c -0.097 0.025 -0.198 0.048 -0.296 0.072 c -0.553 0.138 -1.117 0.269 -1.691 0.395 c -0.162 0.036 -0.322 0.071 -0.486 0.106 c -0.658 0.14 -1.324 0.273 -2.003 0.398 c -0.096 0.018 -0.194 0.034 -0.29 0.051 c -0.609 0.11 -1.224 0.214 -1.845 0.313 c -0.172 0.027 -0.344 0.055 -0.517 0.082 c -0.7 0.108 -1.404 0.21 -2.113 0.305 c -0.087 0.012 -0.175 0.022 -0.263 0.033 c -0.641 0.084 -1.285 0.162 -1.929 0.235 c -0.181 0.021 -0.362 0.041 -0.543 0.061 c -0.713 0.078 -1.426 0.152 -2.137 0.219 c -0.069 0.006 -0.137 0.012 -0.207 0.018 c -0.658 0.06 -1.312 0.115 -1.962 0.166 c -0.181 0.014 -0.36 0.028 -0.54 0.041 c -0.699 0.052 -1.395 0.1 -2.08 0.141 c -0.053 0.003 -0.105 0.006 -0.159 0.009 c -0.647 0.038 -1.284 0.071 -1.914 0.1 c -0.168 0.008 -0.334 0.016 -0.5 0.023 c -0.663 0.029 -1.318 0.054 -1.955 0.073 c -0.031 0.001 -0.061 0.001 -0.092 0.002 c -0.615 0.018 -1.211 0.031 -1.795 0.041 c -0.152 0.003 -0.302 0.005 -0.453 0.007 c -0.598 0.008 -1.186 0.014 -1.746 0.014 s -1.147 -0.006 -1.746 -0.014 c -0.15 -0.002 -0.3 -0.004 -0.453 -0.007 c -0.585 -0.01 -1.181 -0.023 -1.795 -0.041 c -0.031 -0.001 -0.061 -0.001 -0.092 -0.002 c -0.637 -0.019 -1.292 -0.045 -1.955 -0.074 c -0.166 -0.007 -0.332 -0.015 -0.5 -0.023 c -0.63 -0.029 -1.268 -0.062 -1.916 -0.1 c -0.053 -0.003 -0.104 -0.005 -0.157 -0.009 c -0.686 -0.041 -1.381 -0.089 -2.081 -0.141 c -0.179 -0.013 -0.358 -0.027 -0.537 -0.041 c -0.652 -0.051 -1.308 -0.106 -1.967 -0.166 c -0.068 -0.006 -0.135 -0.011 -0.202 -0.018 c -0.712 -0.066 -1.425 -0.14 -2.14 -0.219 c -0.18 -0.02 -0.36 -0.04 -0.54 -0.061 c -0.647 -0.074 -1.293 -0.152 -1.936 -0.236 c -0.085 -0.011 -0.171 -0.021 -0.256 -0.032 c -0.71 -0.095 -1.415 -0.197 -2.116 -0.305 c -0.171 -0.026 -0.341 -0.054 -0.512 -0.081 c -0.624 -0.099 -1.243 -0.204 -1.855 -0.314 c -0.093 -0.017 -0.188 -0.032 -0.281 -0.05 c -0.68 -0.125 -1.348 -0.259 -2.007 -0.399 c -0.162 -0.034 -0.321 -0.07 -0.481 -0.105 c -0.577 -0.127 -1.143 -0.259 -1.699 -0.397 c -0.096 -0.024 -0.194 -0.046 -0.289 -0.07 c -0.626 -0.159 -1.232 -0.328 -1.825 -0.503 c -0.14 -0.041 -0.276 -0.084 -0.414 -0.127 c -0.513 -0.157 -1.011 -0.32 -1.494 -0.49 c -0.089 -0.031 -0.181 -0.061 -0.269 -0.093 c -0.543 -0.196 -1.061 -0.402 -1.559 -0.616 c -0.116 -0.05 -0.228 -0.101 -0.342 -0.152 c -0.423 -0.189 -0.828 -0.384 -1.212 -0.586 c -0.057 -0.03 -0.123 -0.056 -0.178 -0.086 v 20.014 C 10.365 59.77 22.417 64.461 45 64.461 c 22.583 0 34.633 -4.691 34.808 -6.694 V 37.755 C 79.752 37.785 79.686 37.812 79.629 37.841 z M 45.982 56.083 h -1.965 c -1.212 0 -2.195 -0.983 -2.195 -2.195 c 0 -1.212 0.983 -2.195 2.195 -2.195 h 1.965 c 1.213 0 2.196 0.983 2.196 2.195 C 48.178 55.1 47.195 56.083 45.982 56.083 z" style="stroke: none; stroke-width: 1; stroke-dasharray: none; stroke-linecap: butt; stroke-linejoin: miter; stroke-miterlimit: 10; fill: rgb(255,255,255); fill-rule: nonzero; opacity: 1;" transform=" matrix(1 0 0 1 0 0) " stroke-linecap="round"/>
	<path d="M 79.619 63.385 c -0.379 0.199 -0.778 0.392 -1.195 0.578 c -0.117 0.053 -0.232 0.106 -0.352 0.157 c -0.495 0.212 -1.01 0.417 -1.549 0.612 c -0.095 0.034 -0.195 0.066 -0.291 0.1 c -0.473 0.166 -0.962 0.326 -1.464 0.481 c -0.146 0.045 -0.29 0.09 -0.437 0.134 c -0.588 0.174 -1.189 0.341 -1.809 0.499 c -0.102 0.026 -0.208 0.05 -0.311 0.076 c -0.549 0.137 -1.108 0.267 -1.678 0.392 c -0.163 0.036 -0.326 0.072 -0.491 0.107 c -0.656 0.139 -1.321 0.272 -1.998 0.397 c -0.1 0.018 -0.203 0.035 -0.304 0.053 c -0.603 0.109 -1.212 0.211 -1.826 0.309 c -0.178 0.028 -0.355 0.057 -0.534 0.084 c -0.697 0.107 -1.398 0.209 -2.104 0.303 c -0.088 0.012 -0.177 0.022 -0.265 0.033 c -0.641 0.084 -1.283 0.162 -1.926 0.235 c -0.182 0.021 -0.362 0.041 -0.544 0.061 c -0.713 0.078 -1.426 0.152 -2.137 0.219 c -0.069 0.007 -0.137 0.012 -0.207 0.018 c -0.658 0.06 -1.312 0.115 -1.962 0.166 c -0.181 0.014 -0.36 0.028 -0.54 0.041 c -0.701 0.052 -1.398 0.1 -2.085 0.142 c -0.045 0.003 -0.088 0.005 -0.133 0.007 c -0.654 0.039 -1.298 0.072 -1.934 0.101 c -0.168 0.008 -0.334 0.016 -0.5 0.023 c -0.663 0.029 -1.318 0.054 -1.955 0.073 c -0.031 0.001 -0.061 0.001 -0.092 0.002 c -0.615 0.018 -1.211 0.031 -1.795 0.041 c -0.152 0.003 -0.302 0.005 -0.453 0.007 c -0.598 0.008 -1.186 0.014 -1.746 0.014 s -1.147 -0.006 -1.746 -0.014 c -0.15 -0.002 -0.3 -0.004 -0.453 -0.007 c -0.585 -0.01 -1.181 -0.023 -1.795 -0.041 c -0.031 -0.001 -0.061 -0.001 -0.092 -0.002 c -0.637 -0.019 -1.292 -0.045 -1.955 -0.074 c -0.166 -0.007 -0.332 -0.015 -0.5 -0.023 c -0.637 -0.03 -1.281 -0.063 -1.936 -0.102 c -0.044 -0.003 -0.087 -0.005 -0.132 -0.007 c -0.687 -0.041 -1.385 -0.09 -2.087 -0.142 c -0.179 -0.013 -0.358 -0.027 -0.537 -0.041 c -0.652 -0.051 -1.308 -0.106 -1.967 -0.166 c -0.068 -0.006 -0.135 -0.011 -0.202 -0.018 c -0.712 -0.066 -1.425 -0.14 -2.14 -0.219 c -0.18 -0.02 -0.36 -0.04 -0.541 -0.061 c -0.646 -0.074 -1.291 -0.152 -1.934 -0.236 c -0.086 -0.011 -0.172 -0.021 -0.258 -0.033 c -0.708 -0.094 -1.41 -0.196 -2.108 -0.304 c -0.177 -0.027 -0.352 -0.055 -0.528 -0.083 c -0.618 -0.098 -1.231 -0.202 -1.836 -0.311 c -0.098 -0.018 -0.197 -0.034 -0.294 -0.052 c -0.678 -0.125 -1.344 -0.259 -2.002 -0.398 c -0.163 -0.035 -0.324 -0.07 -0.486 -0.106 c -0.572 -0.126 -1.134 -0.257 -1.685 -0.394 c -0.101 -0.025 -0.205 -0.049 -0.305 -0.074 c -0.621 -0.158 -1.224 -0.326 -1.813 -0.5 c -0.146 -0.043 -0.289 -0.088 -0.433 -0.132 c -0.505 -0.155 -0.996 -0.316 -1.471 -0.483 c -0.094 -0.033 -0.193 -0.065 -0.286 -0.098 c -0.54 -0.195 -1.056 -0.4 -1.551 -0.613 c -0.12 -0.051 -0.234 -0.104 -0.351 -0.156 c -0.417 -0.186 -0.816 -0.379 -1.196 -0.578 c -0.06 -0.032 -0.13 -0.06 -0.189 -0.091 v 20.014 C 10.369 85.309 22.426 90 45 90 s 34.631 -4.691 34.808 -6.694 V 63.293 C 79.749 63.325 79.679 63.353 79.619 63.385 z M 45.982 81.621 h -1.965 c -1.212 0 -2.195 -0.983 -2.195 -2.195 s 0.983 -2.195 2.195 -2.195 h 1.965 c 1.213 0 2.196 0.983 2.196 2.195 S 47.195 81.621 45.982 81.621 z" style="stroke: none; stroke-width: 1; stroke-dasharray: none; stroke-linecap: butt; stroke-linejoin: miter; stroke-miterlimit: 10; fill: rgb(255,255,255); fill-rule: nonzero; opacity: 1;" transform=" matrix(1 0 0 1 0 0) " stroke-linecap="round"/>
</g>
</svg>