<svg xmlns="http://www.w3.org/2000/svg" xmlns:xlink="http://www.w3.org/1999/xlink" version="1.1" width="256" height="256" viewBox="0 0 256 256" xml:space="preserve">
<g style="stroke: none; stroke-width: 0; stroke-dasharray: none; stroke-linecap: butt; stroke-linejoin: miter; stroke-miterlimit: 10; fill: none; fill-rule: nonzero; opacity: 1;" transform="translate(1.4065934065934016 1.4065934065934016) scale(2.81 2.81)">
	<path d="M 40.172 16.267 c 17.975 0 32.546 14.571 32.546 32.546 c 0 17.975 -14.571 32.546 -32.546 32.546 c -17.975 0 -32.546 -14.571 -32.546 -32.546 h 32.546 V 16.267 z" style="stroke: none; stroke-width: 1; stroke-dasharray: none; stroke-linecap: butt; stroke-linejoin: miter; stroke-miterlimit: 10; fill: rgb(11,37,69); fill-rule: nonzero; opacity: 1;" transform=" matrix(1 0 0 1 0 0) " stroke-linecap="round"/>
	<path d="M 32.546 8.641 v 32.546 H 0 C 0 23.212 14.571 8.641 32.546 8.641 z" style="stroke: none; stroke-width: 1; stroke-dasharray: none; stroke-linecap: butt; stroke-linejoin: miter; stroke-miterlimit: 10; fill: rgb(141,169,196); fill-rule: nonzero; opacity: 1;" transform=" matrix(1 0 0 1 0 0) " stroke-linecap="round"/>
	<path d="M 88.685 73.763 H 59.411 c -0.726 0 -1.315 1.015 -1.315 2.268 v 2.933 l 0 0 c 0 1.296 0.609 2.346 1.36 2.346 H 88.64 c 0.751 0 1.36 -1.05 1.36 -2.346 l 0 0 v -2.933 C 90 74.779 89.411 73.763 88.685 73.763 z" style="stroke: none; stroke-width: 1; stroke-dasharray: none; stroke-linecap: butt; stroke-linejoin: miter; stroke-miterlimit: 10; fill: rgb(141,169,196); fill-rule: nonzero; opacity: 1;" transform=" matrix(1 0 0 1 0 0) " stroke-linecap="round"/>
	<path d="M 88.685 66.216 H 59.411 c -0.726 0 -1.315 1.015 -1.315 2.268 v 2.933 c 0 1.296 0.609 2.346 1.36 2.346 H 88.64 c 0.751 0 1.36 -1.05 1.36 -2.346 v -2.933 C 90 67.232 89.411 66.216 88.685 66.216 z" style="stroke: none; stroke-width: 1; stroke-dasharray: none; stroke-linecap: butt; stroke-linejoin: miter; stroke-miterlimit: 10; fill: rgb(19,64,116); fill-rule: nonzero; opacity: 1;" transform=" matrix(1 0 0 1 0 0) " stroke-linecap="round"/>
	<path d="M 88.685 58.669 H 59.411 c -0.726 0 -1.315 1.015 -1.315 2.268 v 2.933 c 0 1.296 0.609 2.346 1.36 2.346 H 88.64 c 0.751 0 1.36 -1.05 1.36 -2.346 v -2.933 C 90 59.685 89.411 58.669 88.685 58.669 z" style="stroke: none; stroke-width: 1; stroke-dasharray: none; stroke-linecap: butt; stroke-linejoin: miter; stroke-miterlimit: 10; fill: rgb(141,169,196); fill-rule: nonzero; opacity: 1;" transform=" matrix(1 0 0 1 0 0) " stroke-linecap="round"/>
	<path d="M 88.685 51.123 H 59.411 c -0.726 0 -1.315 1.015 -1.315 2.268 v 2.933 c 0 1.296 0.609 2.346 1.36 2.346 H 88.64 c 0.751 0 1.36 -1.05 1.36 -2.346 v -2.933 C 90 52.138 89.411 51.123 88.685 51.123 z" style="stroke: none; stroke-width: 1; stroke-dasharray: none; stroke-linecap: butt; stroke-linejoin: miter; stroke-miterlimit: 10; fill: rgb(19,64,116); fill-rule: nonzero; opacity: 1;" transform=" matrix(1 0 0 1 0 0) " stroke-linecap="round"/>
	<path d="M 88.685 43.576 H 59.411 c -0.726 0 -1.315 1.015 -1.315 2.268 v 2.933 c 0 1.296 0.609 2.346 1.36 2.346 H 88.64 c 0.751 0 1.36 -1.05 1.36 -2.346 v -2.933 C 90 44.591 89.411 43.576 88.685 43.576 z" style="stroke: none; stroke-width: 1; stroke-dasharray: none; stroke-linecap: butt; stroke-linejoin: miter; stroke-miterlimit: 10; fill: rgb(141,169,196); fill-rule: nonzero; opacity: 1;" transform=" matrix(1 0 0 1 0 0) " stroke-linecap="round"/>
	<path d="M 88.685 36.029 H 59.411 c -0.726 0 -1.315 1.015 -1.315 2.268 v 2.933 l 0 0 c 0 1.296 0.609 2.346 1.36 2.346 H 88.64 c 0.751 0 1.36 -1.05 1.36 -2.346 l 0 0 v -2.933 C 90 37.044 89.411 36.029 88.685 36.029 z" style="stroke: none; stroke-width: 1; stroke-dasharray: none; stroke-linecap: butt; stroke-linejoin: miter; stroke-miterlimit: 10; fill: rgb(19,64,116); fill-rule: nonzero; opacity: 1;" transform=" matrix(1 0 0 1 0 0) " stroke-linecap="round"/>
	<path d="M 88.685 28.482 H 59.411 c -0.726 0 -1.315 1.015 -1.315 2.268 v 2.933 c 0 1.296 0.609 2.346 1.36 2.346 H 88.64 c 0.751 0 1.36 -1.05 1.36 -2.346 V 30.75 C 90 29.497 89.411 28.482 88.685 28.482 z" style="stroke: none; stroke-width: 1; stroke-dasharray: none; stroke-linecap: butt; stroke-linejoin: miter; stroke-miterlimit: 10; fill: rgb(141,169,196); fill-rule: nonzero; opacity: 1;" transform=" matrix(1 0 0 1 0 0) " stroke-linecap="round"/>
	<circle cx="59.152" cy="64.28200000000001" r="17.082" style="stroke: none; stroke-width: 1; stroke-dasharray: none; stroke-linecap: butt; stroke-linejoin: miter; stroke-miterlimit: 10; fill: rgb(19,64,116); fill-rule: nonzero; opacity: 1;" transform="  matrix(1 0 0 1 0 0) "/>
	<circle cx="59.151" cy="64.28099999999999" r="11.371" style="stroke: none; stroke-width: 1; stroke-dasharray: none; stroke-linecap: butt; stroke-linejoin: miter; stroke-miterlimit: 10; fill: rgb(141,169,196); fill-rule: nonzero; opacity: 1;" transform="  matrix(1 0 0 1 0 0) "/>
	<path d="M 59.068 71.106 c -1.558 0 -3.027 -0.953 -3.605 -2.494 c -0.193 -0.518 0.068 -1.094 0.585 -1.288 c 0.517 -0.191 1.094 0.067 1.288 0.585 c 0.357 0.953 1.424 1.436 2.375 1.08 c 0.951 -0.357 1.436 -1.422 1.078 -2.374 c -0.204 -0.546 -0.645 -0.953 -1.207 -1.119 l -1.482 -0.54 c -1.11 -0.324 -2.028 -1.175 -2.455 -2.314 c -0.744 -1.984 0.266 -4.205 2.251 -4.949 c 0.959 -0.36 2.004 -0.325 2.939 0.1 c 0.935 0.425 1.647 1.188 2.009 2.149 c 0.193 0.518 -0.068 1.094 -0.585 1.288 c -0.517 0.191 -1.094 -0.067 -1.288 -0.585 c -0.173 -0.462 -0.515 -0.828 -0.963 -1.031 c -0.45 -0.205 -0.949 -0.221 -1.41 -0.048 c -0.462 0.173 -0.829 0.516 -1.032 0.964 c -0.204 0.448 -0.221 0.949 -0.048 1.411 c 0.204 0.544 0.645 0.951 1.208 1.116 l 1.482 0.541 c 1.11 0.324 2.026 1.176 2.454 2.315 c 0.36 0.961 0.325 2.005 -0.1 2.94 c -0.425 0.935 -1.188 1.647 -2.149 2.009 C 59.97 71.027 59.516 71.106 59.068 71.106 z" style="stroke: none; stroke-width: 1; stroke-dasharray: none; stroke-linecap: butt; stroke-linejoin: miter; stroke-miterlimit: 10; fill: rgb(19,49,92); fill-rule: nonzero; opacity: 1;" transform=" matrix(1 0 0 1 0 0) " stroke-linecap="round"/>
	<path d="M 59.153 59.451 c -0.553 0 -1 -0.447 -1 -1 v -1.59 c 0 -0.553 0.447 -1 1 -1 s 1 0.447 1 1 v 1.59 C 60.153 59.004 59.706 59.451 59.153 59.451 z" style="stroke: none; stroke-width: 1; stroke-dasharray: none; stroke-linecap: butt; stroke-linejoin: miter; stroke-miterlimit: 10; fill: rgb(19,49,92); fill-rule: nonzero; opacity: 1;" transform=" matrix(1 0 0 1 0 0) " stroke-linecap="round"/>
	<path d="M 59.153 72.692 c -0.553 0 -1 -0.447 -1 -1 v -1.589 c 0 -0.553 0.447 -1 1 -1 s 1 0.447 1 1 v 1.589 C 60.153 72.245 59.706 72.692 59.153 72.692 z" style="stroke: none; stroke-width: 1; stroke-dasharray: none; stroke-linecap: butt; stroke-linejoin: miter; stroke-miterlimit: 10; fill: rgb(19,49,92); fill-rule: nonzero; opacity: 1;" transform=" matrix(1 0 0 1 0 0) " stroke-linecap="round"/>
</g>
</svg>