<svg xmlns="http://www.w3.org/2000/svg" xmlns:xlink="http://www.w3.org/1999/xlink" version="1.1" width="256" height="256" viewBox="0 0 256 256" xml:space="preserve">
<g style="stroke: none; stroke-width: 0; stroke-dasharray: none; stroke-linecap: butt; stroke-linejoin: miter; stroke-miterlimit: 10; fill: none; fill-rule: nonzero; opacity: 1;" transform="translate(1.4065934065934016 1.4065934065934016) scale(2.81 2.81)">
	<circle cx="45" cy="45" r="45" style="stroke: none; stroke-width: 1; stroke-dasharray: none; stroke-linecap: butt; stroke-linejoin: miter; stroke-miterlimit: 10; fill: rgb(19,49,92); fill-rule: nonzero; opacity: 1;" transform="  matrix(1 0 0 1 0 0) "/>
	<path d="M 59.017 40.03 c -2.316 -7.284 -9.132 -12.563 -17.184 -12.563 S 26.965 32.746 24.649 40.03 C 18.269 41.603 13.5 47.388 13.5 54.236 v 0 c 0 8.047 6.584 14.63 14.63 14.63 h 27.406 c 8.047 0 14.63 -6.584 14.63 -14.63 v 0 C 70.167 47.388 65.397 41.603 59.017 40.03 z" style="stroke: none; stroke-width: 1; stroke-dasharray: none; stroke-linecap: butt; stroke-linejoin: miter; stroke-miterlimit: 10; fill: rgb(11,37,69); fill-rule: nonzero; opacity: 1;" transform=" matrix(1 0 0 1 0 0) " stroke-linecap="round"/>
	<path d="M 62.351 36.697 c -2.316 -7.284 -9.132 -12.563 -17.184 -12.563 s -14.868 5.279 -17.184 12.563 c -6.38 1.573 -11.149 7.358 -11.149 14.206 v 0 c 0 8.047 6.584 14.63 14.63 14.63 H 58.87 c 8.047 0 14.63 -6.584 14.63 -14.63 v 0 C 73.5 44.055 68.731 38.269 62.351 36.697 z" style="stroke: none; stroke-width: 1; stroke-dasharray: none; stroke-linecap: butt; stroke-linejoin: miter; stroke-miterlimit: 10; fill: rgb(255,255,255); fill-rule: nonzero; opacity: 1;" transform=" matrix(1 0 0 1 0 0) " stroke-linecap="round"/>
</g>
</svg>