<svg xmlns="http://www.w3.org/2000/svg" xmlns:xlink="http://www.w3.org/1999/xlink" version="1.1" width="256" height="256" viewBox="0 0 256 256" xml:space="preserve">
<g style="stroke: none; stroke-width: 0; stroke-dasharray: none; stroke-linecap: butt; stroke-linejoin: miter; stroke-miterlimit: 10; fill: none; fill-rule: nonzero; opacity: 1;" transform="translate(1.4065934065934016 1.4065934065934016) scale(2.81 2.81)">
	<path d="M 74.314 71.877 H 15.686 C 7.037 71.877 0 64.841 0 56.191 c 0 -5.207 2.606 -10.065 6.879 -12.971 c -0.024 -0.432 -0.036 -0.858 -0.036 -1.274 c 0 -13.136 10.688 -23.823 23.824 -23.823 c 8.203 0 15.668 4.14 20.03 10.955 c 3.621 -2.771 8.025 -4.274 12.643 -4.274 c 10.955 0 19.901 8.336 20.775 19.151 C 87.817 46.924 90 51.428 90 56.191 C 90 64.841 82.964 71.877 74.314 71.877 z M 30.667 22.123 c -10.931 0 -19.824 8.893 -19.824 19.823 c 0 0.676 0.039 1.388 0.116 2.117 c 0.084 0.793 -0.311 1.561 -1.005 1.953 C 6.281 48.089 4 51.988 4 56.191 c 0 6.443 5.242 11.686 11.686 11.686 h 58.628 C 80.758 67.877 86 62.635 86 56.191 c 0 -3.793 -1.861 -7.367 -4.979 -9.56 c -0.513 -0.36 -0.826 -0.939 -0.849 -1.565 c -0.323 -9.12 -7.718 -16.263 -16.834 -16.263 c -4.423 0 -8.605 1.707 -11.778 4.807 c -0.455 0.446 -1.095 0.649 -1.728 0.542 c -0.63 -0.105 -1.171 -0.505 -1.457 -1.075 C 44.984 26.32 38.198 22.123 30.667 22.123 z" style="stroke: none; stroke-width: 1; stroke-dasharray: none; stroke-linecap: butt; stroke-linejoin: miter; stroke-miterlimit: 10; fill: rgb(27,38,79); fill-rule: nonzero; opacity: 1;" transform=" matrix(1 0 0 1 0 0) " stroke-linecap="round"/>
</g>
</svg>