<svg xmlns="http://www.w3.org/2000/svg" xmlns:xlink="http://www.w3.org/1999/xlink" version="1.1" width="256" height="256" viewBox="0 0 256 256" xml:space="preserve">
<g style="stroke: none; stroke-width: 0; stroke-dasharray: none; stroke-linecap: butt; stroke-linejoin: miter; stroke-miterlimit: 10; fill: none; fill-rule: nonzero; opacity: 1;" transform="translate(1.4065934065934016 1.4065934065934016) scale(2.81 2.81)">
	<circle cx="45" cy="45" r="45" style="stroke: none; stroke-width: 1; stroke-dasharray: none; stroke-linecap: butt; stroke-linejoin: miter; stroke-miterlimit: 10; fill: rgb(19,49,92); fill-rule: nonzero; opacity: 1;" transform="  matrix(1 0 0 1 0 0) "/>
	<path d="M 64.425 50.083 c -1.657 0 -3 -1.343 -3 -3 c 0 -10.803 -8.789 -19.591 -19.591 -19.591 c -10.803 0 -19.591 8.789 -19.591 19.591 c 0 1.657 -1.343 3 -3 3 s -3 -1.343 -3 -3 c 0 -14.111 11.48 -25.591 25.591 -25.591 c 14.111 0 25.591 11.48 25.591 25.591 C 67.425 48.74 66.082 50.083 64.425 50.083 z" style="stroke: none; stroke-width: 1; stroke-dasharray: none; stroke-linecap: butt; stroke-linejoin: miter; stroke-miterlimit: 10; fill: rgb(11,37,69); fill-rule: nonzero; opacity: 1;" transform=" matrix(1 0 0 1 0 0) " stroke-linecap="round"/>
	<path d="M 21.219 63.47 h -1.531 c -3.403 0 -6.187 -2.784 -6.187 -6.187 v -7.371 c 0 -3.403 2.784 -6.187 6.187 -6.187 h 1.531 c 1.369 0 2.489 1.12 2.489 2.489 v 14.768 C 23.708 62.35 22.588 63.47 21.219 63.47 z" style="stroke: none; stroke-width: 1; stroke-dasharray: none; stroke-linecap: butt; stroke-linejoin: miter; stroke-miterlimit: 10; fill: rgb(11,37,69); fill-rule: nonzero; opacity: 1;" transform=" matrix(1 0 0 1 0 0) " stroke-linecap="round"/>
	<path d="M 21.219 64.47 h -1.531 c -3.963 0 -7.188 -3.225 -7.188 -7.188 v -7.371 c 0 -3.963 3.224 -7.188 7.188 -7.188 h 1.531 c 1.924 0 3.489 1.565 3.489 3.489 V 60.98 C 24.708 62.904 23.143 64.47 21.219 64.47 z M 19.688 44.724 c -2.86 0 -5.188 2.327 -5.188 5.188 v 7.371 c 0 2.86 2.327 5.188 5.188 5.188 h 1.531 c 0.821 0 1.489 -0.668 1.489 -1.489 V 46.213 c 0 -0.821 -0.668 -1.489 -1.489 -1.489 H 19.688 z" style="stroke: none; stroke-width: 1; stroke-dasharray: none; stroke-linecap: butt; stroke-linejoin: miter; stroke-miterlimit: 10; fill: rgb(11,37,69); fill-rule: nonzero; opacity: 1;" transform=" matrix(1 0 0 1 0 0) " stroke-linecap="round"/>
	<path d="M 62.448 43.723 h 1.531 c 3.403 0 6.187 2.784 6.187 6.187 v 7.371 c 0 3.403 -2.784 6.187 -6.187 6.187 h -1.531 c -1.369 0 -2.489 -1.12 -2.489 -2.489 V 46.213 C 59.959 44.844 61.079 43.723 62.448 43.723 z" style="stroke: none; stroke-width: 1; stroke-dasharray: none; stroke-linecap: butt; stroke-linejoin: miter; stroke-miterlimit: 10; fill: rgb(11,37,69); fill-rule: nonzero; opacity: 1;" transform=" matrix(1 0 0 1 0 0) " stroke-linecap="round"/>
	<path d="M 63.979 64.47 h -1.531 c -1.924 0 -3.489 -1.565 -3.489 -3.489 V 46.213 c 0 -1.924 1.565 -3.489 3.489 -3.489 h 1.531 c 3.963 0 7.188 3.224 7.188 7.188 v 7.371 C 71.167 61.245 67.942 64.47 63.979 64.47 z M 62.448 44.724 c -0.821 0 -1.489 0.668 -1.489 1.489 V 60.98 c 0 0.821 0.668 1.489 1.489 1.489 h 1.531 c 2.86 0 5.188 -2.327 5.188 -5.188 v -7.371 c 0 -2.86 -2.327 -5.188 -5.188 -5.188 H 62.448 z" style="stroke: none; stroke-width: 1; stroke-dasharray: none; stroke-linecap: butt; stroke-linejoin: miter; stroke-miterlimit: 10; fill: rgb(11,37,69); fill-rule: nonzero; opacity: 1;" transform=" matrix(1 0 0 1 0 0) " stroke-linecap="round"/>
	<path d="M 37.872 72.897 c -8.454 0 -15.451 -3.271 -20.812 -9.734 c -0.529 -0.638 -0.44 -1.584 0.197 -2.112 c 0.637 -0.529 1.583 -0.441 2.112 0.196 c 5.023 6.058 11.398 8.884 19.429 8.637 c 0.831 -0.043 1.52 0.625 1.545 1.453 c 0.025 0.828 -0.626 1.52 -1.454 1.545 C 38.549 72.893 38.209 72.897 37.872 72.897 z" style="stroke: none; stroke-width: 1; stroke-dasharray: none; stroke-linecap: butt; stroke-linejoin: miter; stroke-miterlimit: 10; fill: rgb(11,37,69); fill-rule: nonzero; opacity: 1;" transform=" matrix(1 0 0 1 0 0) " stroke-linecap="round"/>
	<circle cx="38.840999999999994" cy="71.47099999999999" r="3.151" style="stroke: none; stroke-width: 1; stroke-dasharray: none; stroke-linecap: butt; stroke-linejoin: miter; stroke-miterlimit: 10; fill: rgb(11,37,69); fill-rule: nonzero; opacity: 1;" transform="  matrix(1 0 0 1 0 0) "/>
	<path d="M 38.845 76.12 c -2.564 0 -4.65 -2.086 -4.65 -4.65 s 2.086 -4.65 4.65 -4.65 s 4.651 2.086 4.651 4.65 S 41.409 76.12 38.845 76.12 z M 38.845 69.819 c -0.91 0 -1.65 0.74 -1.65 1.65 s 0.74 1.65 1.65 1.65 s 1.651 -0.74 1.651 -1.65 S 39.755 69.819 38.845 69.819 z" style="stroke: none; stroke-width: 1; stroke-dasharray: none; stroke-linecap: butt; stroke-linejoin: miter; stroke-miterlimit: 10; fill: rgb(11,37,69); fill-rule: nonzero; opacity: 1;" transform=" matrix(1 0 0 1 0 0) " stroke-linecap="round"/>
	<path d="M 22.575 46.75 c -1.657 0 -3 -1.343 -3 -3 c 0 -14.111 11.48 -25.591 25.591 -25.591 c 14.111 0 25.591 11.48 25.591 25.591 c 0 1.657 -1.343 3 -3 3 s -3 -1.344 -3 -3 c 0 -10.802 -8.789 -19.591 -19.591 -19.591 c -10.803 0 -19.591 8.789 -19.591 19.591 C 25.575 45.406 24.232 46.75 22.575 46.75 z" style="stroke: none; stroke-width: 1; stroke-dasharray: none; stroke-linecap: butt; stroke-linejoin: miter; stroke-miterlimit: 10; fill: rgb(255,255,255); fill-rule: nonzero; opacity: 1;" transform=" matrix(1 0 0 1 0 0) " stroke-linecap="round"/>
	<path d="M 24.552 60.137 h -1.531 c -3.403 0 -6.187 -2.784 -6.187 -6.187 v -7.371 c 0 -3.403 2.784 -6.187 6.187 -6.187 h 1.531 c 1.369 0 2.489 1.12 2.489 2.489 v 14.768 C 27.041 59.016 25.921 60.137 24.552 60.137 z" style="stroke: none; stroke-width: 1; stroke-dasharray: none; stroke-linecap: butt; stroke-linejoin: miter; stroke-miterlimit: 10; fill: rgb(255,255,255); fill-rule: nonzero; opacity: 1;" transform=" matrix(1 0 0 1 0 0) " stroke-linecap="round"/>
	<path d="M 24.552 61.137 h -1.531 c -3.963 0 -7.188 -3.225 -7.188 -7.188 v -7.372 c 0 -3.963 3.224 -7.187 7.188 -7.187 h 1.531 c 1.924 0 3.489 1.565 3.489 3.489 v 14.768 C 28.041 59.571 26.476 61.137 24.552 61.137 z M 23.021 41.39 c -2.86 0 -5.188 2.327 -5.188 5.187 v 7.372 c 0 2.86 2.327 5.188 5.188 5.188 h 1.531 c 0.821 0 1.489 -0.668 1.489 -1.489 V 42.879 c 0 -0.821 -0.668 -1.489 -1.489 -1.489 H 23.021 z" style="stroke: none; stroke-width: 1; stroke-dasharray: none; stroke-linecap: butt; stroke-linejoin: miter; stroke-miterlimit: 10; fill: rgb(255,255,255); fill-rule: nonzero; opacity: 1;" transform=" matrix(1 0 0 1 0 0) " stroke-linecap="round"/>
	<path d="M 65.781 40.39 h 1.531 c 3.403 0 6.187 2.784 6.187 6.187 v 7.371 c 0 3.403 -2.784 6.187 -6.187 6.187 h -1.531 c -1.369 0 -2.489 -1.12 -2.489 -2.489 V 42.879 C 63.292 41.51 64.412 40.39 65.781 40.39 z" style="stroke: none; stroke-width: 1; stroke-dasharray: none; stroke-linecap: butt; stroke-linejoin: miter; stroke-miterlimit: 10; fill: rgb(255,255,255); fill-rule: nonzero; opacity: 1;" transform=" matrix(1 0 0 1 0 0) " stroke-linecap="round"/>
	<path d="M 67.313 61.137 h -1.531 c -1.924 0 -3.489 -1.565 -3.489 -3.489 V 42.879 c 0 -1.924 1.565 -3.489 3.489 -3.489 h 1.531 c 3.963 0 7.188 3.224 7.188 7.187 v 7.372 C 74.5 57.912 71.275 61.137 67.313 61.137 z M 65.781 41.39 c -0.821 0 -1.489 0.668 -1.489 1.489 v 14.768 c 0 0.821 0.668 1.489 1.489 1.489 h 1.531 c 2.86 0 5.188 -2.327 5.188 -5.188 v -7.372 c 0 -2.86 -2.327 -5.187 -5.188 -5.187 H 65.781 z" style="stroke: none; stroke-width: 1; stroke-dasharray: none; stroke-linecap: butt; stroke-linejoin: miter; stroke-miterlimit: 10; fill: rgb(255,255,255); fill-rule: nonzero; opacity: 1;" transform=" matrix(1 0 0 1 0 0) " stroke-linecap="round"/>
	<path d="M 40.976 69.794 c -8.454 0 -15.452 -3.271 -20.812 -9.734 c -0.529 -0.638 -0.44 -1.584 0.197 -2.112 c 0.638 -0.529 1.583 -0.44 2.112 0.196 c 5.022 6.058 11.377 8.878 19.429 8.637 c 0.839 -0.051 1.521 0.625 1.545 1.453 s -0.626 1.52 -1.454 1.545 C 41.652 69.789 41.313 69.794 40.976 69.794 z" style="stroke: none; stroke-width: 1; stroke-dasharray: none; stroke-linecap: butt; stroke-linejoin: miter; stroke-miterlimit: 10; fill: rgb(255,255,255); fill-rule: nonzero; opacity: 1;" transform=" matrix(1 0 0 1 0 0) " stroke-linecap="round"/>
	<circle cx="41.95099999999999" cy="68.371" r="3.151" style="stroke: none; stroke-width: 1; stroke-dasharray: none; stroke-linecap: butt; stroke-linejoin: miter; stroke-miterlimit: 10; fill: rgb(255,255,255); fill-rule: nonzero; opacity: 1;" transform="  matrix(1 0 0 1 0 0) "/>
	<path d="M 41.948 73.017 c -2.564 0 -4.65 -2.086 -4.65 -4.65 s 2.086 -4.65 4.65 -4.65 s 4.651 2.086 4.651 4.65 S 44.513 73.017 41.948 73.017 z M 41.948 66.716 c -0.91 0 -1.65 0.74 -1.65 1.65 s 0.74 1.65 1.65 1.65 s 1.651 -0.74 1.651 -1.65 S 42.858 66.716 41.948 66.716 z" style="stroke: none; stroke-width: 1; stroke-dasharray: none; stroke-linecap: butt; stroke-linejoin: miter; stroke-miterlimit: 10; fill: rgb(255,255,255); fill-rule: nonzero; opacity: 1;" transform=" matrix(1 0 0 1 0 0) " stroke-linecap="round"/>
</g>
</svg>