<svg xmlns="http://www.w3.org/2000/svg" xmlns:xlink="http://www.w3.org/1999/xlink" version="1.1" width="256" height="256" viewBox="0 0 256 256" xml:space="preserve">
<g style="stroke: none; stroke-width: 0; stroke-dasharray: none; stroke-linecap: butt; stroke-linejoin: miter; stroke-miterlimit: 10; fill: rgb(11,37,69); fill-rule: nonzero; opacity: 1;" transform="translate(0 -2.842170943040401e-14) scale(2.81 2.81)">
	<circle cx="45" cy="45" r="45" style="stroke: none; stroke-width: 1; stroke-dasharray: none; stroke-linecap: butt; stroke-linejoin: miter; stroke-miterlimit: 10; fill: rgb(11,37,69); fill-rule: nonzero; opacity: 1;" transform="  matrix(1 0 0 1 0 0) "/>
</g>
<g style="stroke: none; stroke-width: 0; stroke-dasharray: none; stroke-linecap: butt; stroke-linejoin: miter; stroke-miterlimit: 10; fill: none; fill-rule: nonzero; opacity: 1;" transform="translate(46.17984832069338 46.17984832069335) scale(1.82 1.82)">
	<path d="M 90 47.648 V 8.139 c 0 -2.637 -2.137 -4.774 -4.774 -4.774 H 4.774 C 2.137 3.365 0 5.502 0 8.139 v 39.509 H 90 z M 54.846 20.19 c -0.77 -0.827 -0.723 -2.121 0.104 -2.891 c 0.825 -0.77 2.12 -0.725 2.89 0.103 l 7.256 7.794 c 0.731 0.786 0.731 2.002 0 2.788 l -7.256 7.794 c -0.403 0.433 -0.95 0.652 -1.497 0.652 c -0.499 0 -1 -0.181 -1.393 -0.548 c -0.827 -0.77 -0.874 -2.064 -0.104 -2.891 l 5.959 -6.401 L 54.846 20.19 z M 39.562 36.156 l 7.005 -20.455 c 0.367 -1.069 1.529 -1.639 2.599 -1.272 c 1.069 0.366 1.638 1.529 1.272 2.598 l -7.006 20.455 c -0.291 0.849 -1.085 1.383 -1.935 1.383 c -0.22 0 -0.443 -0.035 -0.663 -0.111 C 39.766 38.387 39.196 37.224 39.562 36.156 z M 24.905 25.197 l 7.255 -7.794 c 0.769 -0.827 2.063 -0.875 2.891 -0.103 c 0.827 0.77 0.873 2.064 0.103 2.891 l -5.958 6.401 l 5.958 6.401 c 0.77 0.827 0.724 2.121 -0.103 2.891 c -0.394 0.367 -0.894 0.548 -1.393 0.548 c -0.548 0 -1.095 -0.219 -1.498 -0.652 l -7.255 -7.794 C 24.173 27.199 24.173 25.983 24.905 25.197 z" style="stroke: none; stroke-width: 1; stroke-dasharray: none; stroke-linecap: butt; stroke-linejoin: miter; stroke-miterlimit: 10; fill: rgb(255,255,255); fill-rule: nonzero; opacity: 1;" transform=" matrix(1 0 0 1 0 0) " stroke-linecap="round"/>
	<path d="M 0 51.739 v 8.734 c 0 2.637 2.137 4.774 4.774 4.774 h 80.452 c 2.636 0 4.774 -2.137 4.774 -4.774 v -8.734 H 0 z" style="stroke: none; stroke-width: 1; stroke-dasharray: none; stroke-linecap: butt; stroke-linejoin: miter; stroke-miterlimit: 10; fill: rgb(255,255,255); fill-rule: nonzero; opacity: 1;" transform=" matrix(1 0 0 1 0 0) " stroke-linecap="round"/>
	<path d="M 63.196 78.792 h -2.781 c -1.657 -3.003 -2.739 -6.281 -3.212 -9.667 H 32.797 c -0.474 3.386 -1.555 6.664 -3.212 9.667 h -2.781 c -2.978 0 -5.392 2.414 -5.392 5.392 v 2.451 h 47.177 v -2.451 C 68.588 81.206 66.174 78.792 63.196 78.792 z" style="stroke: none; stroke-width: 1; stroke-dasharray: none; stroke-linecap: butt; stroke-linejoin: miter; stroke-miterlimit: 10; fill: rgb(255,255,255); fill-rule: nonzero; opacity: 1;" transform=" matrix(1 0 0 1 0 0) " stroke-linecap="round"/>
</g>
</svg>