<svg xmlns="http://www.w3.org/2000/svg" xmlns:xlink="http://www.w3.org/1999/xlink" version="1.1" width="256" height="256" viewBox="0 0 256 256" xml:space="preserve">
<g style="stroke: none; stroke-width: 0; stroke-dasharray: none; stroke-linecap: butt; stroke-linejoin: miter; stroke-miterlimit: 10; fill: none; fill-rule: nonzero; opacity: 1;" transform="translate(1.4065934065934016 1.4065934065934016) scale(2.81 2.81)">
	<path d="M 75.197 12.705 c -10.333 -1.879 -19.341 -5.76 -26.775 -11.534 c -2.016 -1.563 -4.83 -1.564 -6.843 0 c -7.435 5.773 -16.443 9.654 -26.775 11.534 c -2.667 0.485 -4.603 2.811 -4.603 5.529 v 31.788 c 0 17.53 12.655 33.061 32.241 39.566 c 0.825 0.273 1.691 0.41 2.559 0.41 c 0.867 0 1.734 -0.137 2.561 -0.41 c 19.584 -6.506 32.238 -22.036 32.238 -39.566 V 18.234 C 79.799 15.516 77.863 13.19 75.197 12.705 z M 22.093 45.767 c 0 1.104 -0.896 2 -2 2 s -2 -0.896 -2 -2 v -5.22 c 0 -1.104 0.896 -2 2 -2 s 2 0.896 2 2 V 45.767 z M 37.117 19.346 c -4.332 2.191 -9.183 3.784 -14.418 4.736 c -0.351 0.064 -0.605 0.374 -0.605 0.736 v 8.505 c 0 1.104 -0.896 2 -2 2 s -2 -0.896 -2 -2 v -8.505 c 0 -2.297 1.636 -4.262 3.889 -4.672 c 4.857 -0.883 9.342 -2.354 13.33 -4.37 c 0.984 -0.499 2.188 -0.104 2.687 0.882 C 38.498 17.644 38.103 18.847 37.117 19.346 z M 52.947 77.026 c -1.856 0.94 -3.826 1.759 -5.852 2.433 c -0.21 0.069 -0.422 0.103 -0.631 0.103 c -0.838 0 -1.619 -0.531 -1.898 -1.37 c -0.348 -1.049 0.219 -2.181 1.268 -2.529 c 1.839 -0.61 3.625 -1.353 5.305 -2.204 c 10.5 -5.313 16.768 -14.472 16.768 -24.501 c 0 -1.104 0.896 -2 2 -2 s 2 0.896 2 2 C 71.907 60.525 64.819 71.02 52.947 77.026 z M 71.907 40.364 c 0 1.104 -0.896 2 -2 2 s -2 -0.896 -2 -2 V 27.051 c 0 -1.104 0.896 -2 2 -2 s 2 0.896 2 2 V 40.364 z" style="stroke: none; stroke-width: 1; stroke-dasharray: none; stroke-linecap: butt; stroke-linejoin: miter; stroke-miterlimit: 10; fill: rgb(27,38,79); fill-rule: nonzero; opacity: 1;" transform=" matrix(1 0 0 1 0 0) " stroke-linecap="round"/>
</g>
</svg>