<svg xmlns="http://www.w3.org/2000/svg" xmlns:xlink="http://www.w3.org/1999/xlink" version="1.1" width="256" height="256" viewBox="0 0 256 256" xml:space="preserve">
<g style="stroke: none; stroke-width: 0; stroke-dasharray: none; stroke-linecap: butt; stroke-linejoin: miter; stroke-miterlimit: 10; fill: none; fill-rule: nonzero; opacity: 1;" transform="translate(1.4065934065934016 1.4065934065934016) scale(2.81 2.81)">
	<path d="M 45 0 C 20.147 0 0 20.147 0 45 c 0 24.853 20.147 45 45 45 s 45 -20.147 45 -45 C 90 20.147 69.853 0 45 0 z M 18.052 24.888 l 5.108 5.108 c 1.888 1.888 4.948 1.888 6.836 0 c 1.888 -1.888 1.888 -4.948 0 -6.836 l -5.108 -5.108 c 3.757 -1.246 8.059 -0.386 11.048 2.604 c 3.168 3.168 3.957 7.812 2.369 11.716 l 3.743 3.743 l -4.724 4.724 l 2.768 2.768 l -1.208 1.208 l -6.51 -6.51 c -3.904 1.588 -8.549 0.799 -11.716 -2.369 C 17.667 32.947 16.806 28.645 18.052 24.888 z M 27.502 65.36 l -1.624 3.313 l -5.734 3.218 l -1.987 -1.987 l 3.218 -5.734 l 3.313 -1.624 l 18.939 -18.939 l -2.768 -2.767 l 2.705 -2.705 c 2.196 -0.099 4.591 -1.157 6.523 -3.089 s 2.99 -4.326 3.089 -6.523 l 9.166 -9.166 c 2.254 -2.254 5.909 -2.254 8.163 0 c 2.254 2.254 2.254 5.909 0 8.163 l -9.166 9.166 c -2.196 0.099 -4.591 1.157 -6.523 3.089 c -1.932 1.932 -2.99 4.327 -3.089 6.523 l -2.705 2.705 l -2.581 -2.581 L 27.502 65.36 z M 71.948 65.112 l -5.108 -5.108 c -1.888 -1.888 -4.948 -1.888 -6.836 0 s -1.888 4.948 0 6.836 l 5.108 5.108 c -3.757 1.246 -8.059 0.386 -11.048 -2.604 c -3.168 -3.167 -3.957 -7.812 -2.369 -11.716 l -6.463 -6.463 l 1.208 -1.208 l 2.581 2.581 l 4.724 -4.724 l 3.882 3.882 c 3.904 -1.588 8.549 -0.799 11.716 2.369 C 72.333 57.053 73.194 61.355 71.948 65.112 z" style="stroke: none; stroke-width: 1; stroke-dasharray: none; stroke-linecap: butt; stroke-linejoin: miter; stroke-miterlimit: 10; fill: rgb(27,38,79); fill-rule: nonzero; opacity: 1;" transform=" matrix(1 0 0 1 0 0) " stroke-linecap="round"/>
</g>
</svg>